<svg width="24" height="24" viewBox="0 0 24 24" fill="none" xmlns="http://www.w3.org/2000/svg">
<path d="M13.0004 21.5715C11.3195 21.7796 9.61561 21.4577 8.12652 20.6507C6.63742 19.8437 5.43746 18.5919 4.69414 17.07C3.95082 15.5481 3.70124 13.8321 3.98023 12.1616C4.25923 10.491 5.05288 8.94922 6.25039 7.75147L11.5764 2.42547C11.6889 2.31311 11.8414 2.25 12.0004 2.25C12.1594 2.25 12.3119 2.31311 12.4244 2.42547L17.7504 7.75147C18.8097 8.80995 19.5561 10.1404 19.9073 11.5962C20.2584 13.052 20.2007 14.5764 19.7404 16.0015M16.0004 20.0015L18.0004 22.0015L22.0004 18.0015" stroke="black" stroke-width="1.5" stroke-linecap="round" stroke-linejoin="round"/>
</svg>
