<svg width="24" height="24" viewBox="0 0 24 24" fill="none" xmlns="http://www.w3.org/2000/svg">
<path fill-rule="evenodd" clip-rule="evenodd" d="M10.594 2.31878C11.033 2.10892 11.5134 2 12 2C12.4866 2 12.967 2.10892 13.406 2.31878C13.793 2.50378 14.146 2.80578 14.637 3.22378L14.715 3.28978C14.953 3.49278 15.028 3.55478 15.104 3.60578C15.297 3.73578 15.514 3.82478 15.741 3.86978C15.831 3.88778 15.928 3.89678 16.24 3.92078L16.341 3.92878C16.983 3.97978 17.447 4.01678 17.851 4.15878C18.3099 4.32141 18.7268 4.58446 19.0711 4.92875C19.4153 5.27303 19.6784 5.68985 19.841 6.14878C19.983 6.55278 20.019 7.01678 20.071 7.65878L20.079 7.75978C20.103 8.07178 20.112 8.16978 20.13 8.25878C20.175 8.48678 20.265 8.70378 20.394 8.89678C20.445 8.97178 20.507 9.04678 20.71 9.28478L20.776 9.36278C21.195 9.85278 21.496 10.2068 21.681 10.5928C22.106 11.4828 22.106 12.5168 21.681 13.4058C21.497 13.7928 21.195 14.1458 20.776 14.6368L20.71 14.7148C20.5983 14.8391 20.4928 14.9689 20.394 15.1038C20.264 15.2968 20.175 15.5138 20.13 15.7408C20.112 15.8308 20.104 15.9278 20.079 16.2398L20.07 16.3408C20.02 16.9828 19.983 17.4468 19.84 17.8508C19.6781 18.31 19.4154 18.727 19.0713 19.0714C18.7271 19.4158 18.3101 19.6787 17.851 19.8408C17.447 19.9828 16.983 20.0188 16.341 20.0708L16.24 20.0788C16.0729 20.0874 15.9064 20.1044 15.741 20.1298C15.5137 20.1759 15.2974 20.2656 15.104 20.3938C14.9688 20.4925 14.8386 20.598 14.714 20.7098L14.637 20.7758C14.147 21.1948 13.793 21.4958 13.407 21.6808C12.9679 21.8908 12.4873 21.9998 12.0005 21.9998C11.5137 21.9998 11.0332 21.8908 10.594 21.6808C10.207 21.4968 9.85402 21.1948 9.36302 20.7758L9.28502 20.7098C9.16104 20.598 9.03155 20.4926 8.89702 20.3938C8.70338 20.2654 8.48673 20.1758 8.25902 20.1298C8.09365 20.1044 7.9271 20.0874 7.76002 20.0788L7.65902 20.0698C7.01702 20.0198 6.55302 19.9828 6.14902 19.8398C5.68984 19.6779 5.27276 19.4152 4.9284 19.071C4.58404 18.7268 4.32114 18.3099 4.15902 17.8508C4.01702 17.4468 3.98002 16.9828 3.92902 16.3408L3.92102 16.2398C3.91238 16.0727 3.89536 15.9062 3.87002 15.7408C3.82389 15.5134 3.73425 15.2971 3.60602 15.1038C3.50728 14.9686 3.40182 14.8384 3.29002 14.7138L3.22402 14.6368C2.80602 14.1468 2.50402 13.7928 2.31902 13.4068C2.10901 12.9676 2 12.4871 2 12.0003C2 11.5135 2.10901 11.0329 2.31902 10.5938C2.50402 10.2068 2.80602 9.85378 3.22402 9.36278L3.29002 9.28478C3.40176 9.1608 3.50723 9.03131 3.60602 8.89678C3.73602 8.70378 3.82502 8.48678 3.87002 8.25878C3.88802 8.16878 3.89702 8.07178 3.92102 7.75978L3.92902 7.65878C3.98002 7.01678 4.01702 6.55278 4.15902 6.14878C4.32101 5.6895 4.58385 5.27235 4.92822 4.92798C5.27259 4.58361 5.68974 4.32078 6.14902 4.15878C6.55302 4.01678 7.01702 3.97978 7.65902 3.92878L7.76002 3.92078C7.9271 3.91214 8.09365 3.89512 8.25902 3.86978C8.48702 3.82478 8.70402 3.73478 8.89702 3.60578C8.97202 3.55478 9.04702 3.49278 9.28502 3.28978L9.36302 3.22378C9.85302 2.80578 10.208 2.50378 10.594 2.31878ZM12.756 3.67678C12.5196 3.56413 12.2609 3.50567 11.999 3.50567C11.7371 3.50567 11.4785 3.56413 11.242 3.67678C11.057 3.76478 10.862 3.92378 10.261 4.43478L10.231 4.45978C10.034 4.62778 9.89102 4.75078 9.73402 4.85578C9.37502 5.09578 8.97302 5.26278 8.54902 5.34578C8.36402 5.38278 8.17602 5.39778 7.91702 5.41878L7.87902 5.42178C7.09202 5.48478 6.84302 5.51078 6.64902 5.57878C6.14902 5.75578 5.75502 6.14878 5.57902 6.64978C5.50902 6.84378 5.48402 7.09278 5.42102 7.87978L5.41802 7.91778C5.39802 8.17678 5.38202 8.36478 5.34602 8.54978C5.26202 8.97378 5.09602 9.37578 4.85602 9.73478C4.75002 9.89178 4.62702 10.0348 4.45902 10.2328L4.43402 10.2618C3.92302 10.8618 3.76402 11.0578 3.67602 11.2418C3.56321 11.4784 3.50467 11.7372 3.50467 11.9993C3.50467 12.2614 3.56321 12.5202 3.67602 12.7568C3.76402 12.9418 3.92302 13.1368 4.43402 13.7378L4.45902 13.7678C4.62702 13.9648 4.75002 14.1078 4.85502 14.2648C5.09502 14.6238 5.26202 15.0258 5.34502 15.4498C5.38202 15.6348 5.39702 15.8228 5.41802 16.0818L5.42102 16.1198C5.48402 16.9068 5.51002 17.1558 5.57802 17.3498C5.75502 17.8498 6.14802 18.2438 6.64902 18.4198C6.84302 18.4898 7.09202 18.5148 7.87902 18.5778L7.91702 18.5808C8.17602 18.6008 8.36402 18.6168 8.54902 18.6528C8.97302 18.7368 9.37502 18.9028 9.73402 19.1428C9.89102 19.2488 10.034 19.3718 10.232 19.5398L10.261 19.5648C10.861 20.0758 11.057 20.2348 11.241 20.3228C11.4776 20.4356 11.7364 20.4941 11.9985 20.4941C12.2606 20.4941 12.5194 20.4356 12.756 20.3228C12.941 20.2348 13.136 20.0758 13.737 19.5648L13.767 19.5398C13.964 19.3718 14.107 19.2488 14.264 19.1438C14.623 18.9038 15.025 18.7368 15.449 18.6538C15.6582 18.6183 15.8692 18.5939 16.081 18.5808L16.119 18.5778C16.906 18.5148 17.155 18.4888 17.349 18.4208C17.849 18.2438 18.243 17.8508 18.419 17.3498C18.489 17.1558 18.514 16.9058 18.577 16.1198L18.58 16.0818C18.5928 15.8697 18.6168 15.6584 18.652 15.4488C18.736 15.0258 18.902 14.6238 19.142 14.2648C19.248 14.1078 19.371 13.9648 19.539 13.7668L19.564 13.7378C20.075 13.1378 20.234 12.9418 20.322 12.7578C20.4348 12.5212 20.4934 12.2624 20.4934 12.0003C20.4934 11.7382 20.4348 11.4794 20.322 11.2428C20.234 11.0578 20.075 10.8628 19.564 10.2618L19.539 10.2318C19.371 10.0348 19.248 9.89178 19.143 9.73478C18.9038 9.37562 18.7373 8.97302 18.653 8.54978C18.6175 8.34055 18.5932 8.12959 18.58 7.91778L18.577 7.87978C18.514 7.09278 18.488 6.84378 18.42 6.64978C18.243 6.14978 17.85 5.75578 17.349 5.57978C17.155 5.50978 16.905 5.48478 16.119 5.42178L16.081 5.41878C15.8689 5.40601 15.6576 5.38197 15.448 5.34678C15.0251 5.26238 14.6229 5.09591 14.264 4.85678C14.107 4.75078 13.964 4.62778 13.766 4.45978L13.737 4.43478C13.137 3.92378 12.941 3.76478 12.757 3.67678" fill="black"/>
<path fill-rule="evenodd" clip-rule="evenodd" d="M15.5428 8.45788C15.6128 8.5278 15.6683 8.61082 15.7061 8.70219C15.744 8.79355 15.7634 8.89148 15.7634 8.99038C15.7634 9.08928 15.744 9.1872 15.7061 9.27857C15.6683 9.36994 15.6128 9.45295 15.5428 9.52288L9.52184 15.5429C9.37946 15.6778 9.19008 15.7518 8.99398 15.7492C8.79787 15.7466 8.61052 15.6675 8.47177 15.5289C8.33303 15.3903 8.25384 15.203 8.25105 15.0069C8.24826 14.8108 8.32209 14.6214 8.45684 14.4789L14.4778 8.45888C14.5478 8.38894 14.6308 8.33346 14.7221 8.29561C14.8135 8.25776 14.9114 8.23828 15.0103 8.23828C15.1092 8.23828 15.2072 8.25776 15.2985 8.29561C15.3899 8.33346 15.4729 8.38894 15.5428 8.45888" fill="black"/>
<path d="M15.5118 14.5098C15.516 14.6443 15.4932 14.7782 15.4447 14.9037C15.3962 15.0291 15.323 15.1436 15.2294 15.2402C15.1358 15.3368 15.0237 15.4136 14.8998 15.466C14.776 15.5185 14.6428 15.5455 14.5083 15.5455C14.3738 15.5455 14.2406 15.5185 14.1168 15.466C13.9929 15.4136 13.8809 15.3368 13.7873 15.2402C13.6937 15.1436 13.6204 15.0291 13.5719 14.9037C13.5234 14.7782 13.5006 14.6443 13.5048 14.5098C13.513 14.2492 13.6224 14.002 13.8097 13.8205C13.997 13.639 14.2475 13.5375 14.5083 13.5375C14.7691 13.5375 15.0197 13.639 15.2069 13.8205C15.3942 14.002 15.5036 14.2492 15.5118 14.5098ZM10.4948 9.49185C10.499 9.6263 10.4762 9.76022 10.4277 9.88568C10.3792 10.0111 10.306 10.1256 10.2124 10.2222C10.1188 10.3188 10.0067 10.3956 9.88283 10.448C9.75896 10.5005 9.62582 10.5275 9.4913 10.5275C9.35679 10.5275 9.22365 10.5005 9.09978 10.448C8.97592 10.3956 8.86386 10.3188 8.77026 10.2222C8.67665 10.1256 8.60342 10.0111 8.5549 9.88568C8.50638 9.76022 8.48356 9.6263 8.4878 9.49185C8.49603 9.23119 8.60537 8.98396 8.79266 8.80248C8.97996 8.62101 9.23051 8.51953 9.4913 8.51953C9.7521 8.51953 10.0027 8.62101 10.1899 8.80248C10.3772 8.98396 10.4866 9.23119 10.4948 9.49185Z" fill="black"/>
</svg>
