<svg width="30" height="30" viewBox="0 0 30 30" fill="none" xmlns="http://www.w3.org/2000/svg">
<g clip-path="url(#clip0_106_3)">
<circle cx="15" cy="15" r="15" fill="white"/>
<path d="M11.0167 14.4917C12.2167 16.85 14.15 18.7833 16.5083 19.9833L18.3417 18.15C18.575 17.9167 18.9 17.85 19.1917 17.9417C20.125 18.25 21.125 18.4167 22.1667 18.4167C22.3877 18.4167 22.5996 18.5045 22.7559 18.6607C22.9122 18.817 23 19.029 23 19.25V22.1667C23 22.3877 22.9122 22.5996 22.7559 22.7559C22.5996 22.9122 22.3877 23 22.1667 23C18.4094 23 14.8061 21.5074 12.1493 18.8507C9.49256 16.1939 8 12.5906 8 8.83333C8 8.61232 8.0878 8.40036 8.24408 8.24408C8.40036 8.0878 8.61232 8 8.83333 8H11.75C11.971 8 12.183 8.0878 12.3393 8.24408C12.4955 8.40036 12.5833 8.61232 12.5833 8.83333C12.5833 9.875 12.75 10.875 13.0583 11.8083C13.15 12.1 13.0833 12.425 12.85 12.6583L11.0167 14.4917Z" fill="black"/>
</g>
<defs>
<clipPath id="clip0_106_3">
<rect width="30" height="30" fill="white"/>
</clipPath>
</defs>
</svg>
