<svg width="30" height="30" viewBox="0 0 30 30" fill="none" xmlns="http://www.w3.org/2000/svg">
<g clip-path="url(#clip0_106_6)">
<circle cx="15" cy="15" r="15" fill="white"/>
<path d="M20.6359 9.1236C20.6359 9.1236 22.116 8.5176 21.9927 9.98931C21.9516 10.5953 21.5816 12.7163 21.2938 15.0105L20.307 21.8064C20.307 21.8064 20.2248 22.8019 19.4847 22.9751C18.7447 23.1482 17.6346 22.3691 17.429 22.1959C17.2645 22.0661 14.3455 20.1182 13.3176 19.1659C13.0298 18.9062 12.7008 18.3868 13.3587 17.7808L17.6757 13.4522C18.1691 12.9328 18.6624 11.7208 16.6067 13.1925L10.8507 17.3046C10.8507 17.3046 10.1929 17.7375 8.95947 17.3479L6.28702 16.4822C6.28702 16.4822 5.30027 15.8329 6.98596 15.1836C11.0974 13.1492 16.1545 11.0714 20.6359 9.1236Z" fill="black"/>
</g>
<defs>
<clipPath id="clip0_106_6">
<rect width="30" height="30" fill="white"/>
</clipPath>
</defs>
</svg>
