<svg width="30" height="30" viewBox="0 0 30 30" fill="none" xmlns="http://www.w3.org/2000/svg">
<g clip-path="url(#clip0_106_10)">
<circle cx="15" cy="15" r="15" fill="white"/>
<path d="M23.2767 20.6925H21.3058C20.5605 20.6925 20.3359 20.0888 18.9998 18.7519C17.8322 17.6265 17.339 17.4866 17.0437 17.4866C16.6351 17.4866 16.5237 17.5989 16.5237 18.1611V19.9334C16.5237 20.4127 16.3683 20.6934 15.116 20.6934C13.901 20.6118 12.7229 20.2427 11.6786 19.6165C10.6342 18.9904 9.75358 18.1251 9.10918 17.0919C7.57965 15.1872 6.5151 12.9523 6 10.5644C6 10.269 6.11228 10.0013 6.67538 10.0013H8.64453C9.15064 10.0013 9.33287 10.2267 9.53152 10.7475C10.4876 13.5613 12.119 16.0089 12.7815 16.0089C13.0354 16.0089 13.1459 15.8966 13.1459 15.2636V12.3651C13.0622 11.0428 12.36 10.9314 12.36 10.453C12.3689 10.3267 12.4266 10.2089 12.521 10.1246C12.6153 10.0402 12.7388 9.996 12.8653 10.0013H15.9606C16.3838 10.0013 16.5237 10.212 16.5237 10.7181V14.6305C16.5237 15.0528 16.7051 15.1927 16.8329 15.1927C17.0868 15.1927 17.282 15.0528 17.7475 14.5882C18.745 13.371 19.5602 12.0152 20.1675 10.5635C20.2294 10.389 20.3468 10.2396 20.5017 10.1382C20.6566 10.0368 20.8405 9.98902 21.0251 10.0021H22.9951C23.5859 10.0021 23.7111 10.2975 23.5859 10.719C22.8692 12.3239 21.9826 13.8475 20.9414 15.2636C20.7289 15.5874 20.6443 15.7558 20.9414 16.1359C21.1365 16.4312 21.8275 17.0082 22.2913 17.5566C22.9667 18.2302 23.5272 19.0093 23.9512 19.8626C24.1205 20.4118 23.8389 20.6925 23.2767 20.6925Z" fill="black"/>
</g>
<defs>
<clipPath id="clip0_106_10">
<rect width="30" height="30" fill="white"/>
</clipPath>
</defs>
</svg>
